<svg width="82" height="101" viewBox="0 0 82 101" fill="none" xmlns="http://www.w3.org/2000/svg">
<g filter="url(#filter0_d_103_5)">
<path d="M33.125 93C25.0417 93 20.7083 87.9525 20.125 77.8575C11.0417 76.5115 6.5 72.2212 6.5 64.9864C6.5 60.4437 8.20833 56.5319 11.625 53.251C6.54167 48.4559 4 42.483 4 35.3324C4 28.5183 6.54167 22.2931 11.625 16.6567C18.7917 8.66486 27.625 5.04749 38.125 5.80461C43.0417 1.93487 48.875 0 55.625 0C62.4583 0 67.3333 2.019 70.25 6.05699C71.4167 4.79511 72.5 3.74355 73.5 2.90231C74.5833 1.97693 75.5417 1.21981 76.375 0.630936C77.4583 0.0420594 78 0.126183 78 0.883307C78 1.13568 77.7917 1.38806 77.375 1.64044C76.2917 2.31343 75.25 3.11262 74.25 4.03799C73.25 4.96336 72.2083 6.01492 71.125 7.19267C71.9583 8.62279 72.375 10.2212 72.375 11.9878C72.375 13.1655 72.0417 14.5115 71.375 16.0258C70.0417 18.886 67.875 20.3161 64.875 20.3161C63.125 20.3161 62.25 19.4328 62.25 17.6662C62.25 17.2456 62.3333 16.6988 62.5 16.0258C63.25 13.5862 65.2083 10.9362 68.375 8.07598C66.7083 3.86974 62.6667 1.76662 56.25 1.76662C50.75 1.76662 46.0833 3.32293 42.25 6.43555C48.9167 8.11804 53.375 11.5251 55.625 16.6567C55.7083 16.9091 55.625 17.1194 55.375 17.2877C55.0417 17.3718 54.8333 17.3297 54.75 17.1615C52.4167 11.8616 48 8.53867 41.5 7.19267C38.9167 9.46404 37.625 12.0299 37.625 14.8901C37.625 18.9281 40.7083 23.3026 46.875 28.0136C50.5417 25.8263 53.7917 24.7327 56.625 24.7327C61.9583 24.7327 64.625 27.6771 64.625 33.5658C64.625 36.0896 63.9167 38.8657 62.5 41.8942C65.0833 45.3433 66.375 48.9186 66.375 52.6201C66.375 58.1723 63.6667 63.1778 58.25 67.6364C52.75 72.1791 45.75 75.2497 37.25 76.848C31.6667 78.0258 26.75 78.4464 22.5 78.1099C23.5 86.8589 27.5417 91.2334 34.625 91.2334C37.7917 91.2334 40.75 90.2239 43.5 88.2049C46.3333 86.1859 47.9583 83.7883 48.375 81.0122C48.375 80.6757 48.5417 80.5075 48.875 80.5075C49.2083 80.5916 49.375 80.8019 49.375 81.1384C48.875 84.3351 46.9583 87.1113 43.625 89.4668C40.4583 91.8223 36.9583 93 33.125 93ZM12.5 52.4939C17.1667 48.54 23.25 45.7639 30.75 44.1655C34.0833 39.0339 37.9167 34.7436 42.25 31.2944C41.1667 30.4532 40.2083 29.7381 39.375 29.1493C38.625 28.4763 37.9583 27.8874 37.375 27.3826C33.7083 23.9335 31.875 20.3582 31.875 16.6567C31.875 13.0393 33.625 9.71642 37.125 6.68792C28.0417 6.43555 20.25 9.92673 13.75 17.1615C8.58333 22.882 6 29.2334 6 36.2157C6 42.6934 8.16667 48.1194 12.5 52.4939ZM65.5 19.0543C66.5833 19.0543 67.5417 18.3813 68.375 17.0353C69.2917 15.6052 69.75 14.133 69.75 12.6187C69.75 11.7775 69.5417 10.7259 69.125 9.46404C67.9583 10.8942 67 12.2822 66.25 13.6282C65.5833 14.8901 65.0833 16.1099 64.75 17.2877C64.75 17.3718 64.7083 17.498 64.625 17.6662C64.625 17.7503 64.625 17.8765 64.625 18.0448C64.625 18.7178 64.9167 19.0543 65.5 19.0543ZM61.25 40.3799C62.4167 37.6038 63 35.1642 63 33.0611C63 28.1818 60.7917 25.7422 56.375 25.7422C53.9583 25.7422 51.0833 26.7096 47.75 28.6445L52.25 31.9254C52.8333 32.346 53.2917 32.7666 53.625 33.1872C54.0417 33.5237 54.375 33.7761 54.625 33.9444C57.4583 36.2999 59.6667 38.445 61.25 40.3799ZM30.75 59.1818C35.1667 59.1818 39.25 58.3826 43 56.7843C46.75 55.1018 50.25 52.8725 53.5 50.0963C55.0833 48.7503 56.5417 47.2782 57.875 45.6798C55.9583 42.1465 51.0417 37.5197 43.125 31.7992C38.875 35.2483 35.2083 39.2442 32.125 43.787C33.2917 43.6187 34.375 43.4925 35.375 43.4084C36.4583 43.3243 37.4167 43.2822 38.25 43.2822C38.8333 43.2822 39.375 43.2822 39.875 43.2822C40.375 43.2822 40.8333 43.3243 41.25 43.4084C42.0833 43.4925 42.5 43.9132 42.5 44.6703C42.5 45.175 42.2083 45.3853 41.625 45.3012C40.2917 45.0488 38.875 44.9227 37.375 44.9227C36.375 44.9227 35.3333 45.0068 34.25 45.175C33.25 45.2592 32.1667 45.3853 31 45.5536C29.75 47.6567 28.625 49.8019 27.625 51.9891C26.625 54.1764 25.7083 56.4057 24.875 58.6771L27.125 58.9294C27.7917 59.0136 28.4167 59.0977 29 59.1818C29.5833 59.1818 30.1667 59.1818 30.75 59.1818ZM23.375 58.4247C24.2083 56.2375 25.125 54.1343 26.125 52.1153C27.2083 50.0122 28.375 47.9091 29.625 45.806C22.7083 47.3202 17.5417 50.0543 14.125 54.0081C16.7917 56.1954 19.875 57.6676 23.375 58.4247ZM27.25 75.9647C28.75 75.9647 30.2917 75.8385 31.875 75.5862C33.5417 75.3338 35.2917 74.9973 37.125 74.5767C44.2083 72.8942 49.75 70.118 53.75 66.2483C57.8333 62.3786 59.875 58.1303 59.875 53.5034C59.875 51.4003 59.4583 49.3813 58.625 47.4464C58.0417 48.1194 57.4583 48.7503 56.875 49.3392C56.2917 49.844 55.6667 50.3908 55 50.9796C47.5833 57.3731 38.25 60.3175 27 59.8128C26.25 59.8128 25.4583 59.7286 24.625 59.5604C22.875 64.8602 22.0833 70.1601 22.25 75.46C23.0833 75.5441 23.9167 75.6282 24.75 75.7124C25.5833 75.8806 26.4167 75.9647 27.25 75.9647ZM20 74.9552C20.0833 69.8236 21.0833 64.6079 23 59.308C19.5 58.5509 16.2917 57.0787 13.375 54.8915C11.2917 57.4993 10.25 60.4437 10.25 63.7246C10.25 69.3609 13.5 73.1045 20 74.9552Z" fill="#F5F5F5"/>
</g>
<defs>
<filter id="filter0_d_103_5" x="0" y="0" width="82" height="101" filterUnits="userSpaceOnUse" color-interpolation-filters="sRGB">
<feFlood flood-opacity="0" result="BackgroundImageFix"/>
<feColorMatrix in="SourceAlpha" type="matrix" values="0 0 0 0 0 0 0 0 0 0 0 0 0 0 0 0 0 0 127 0" result="hardAlpha"/>
<feOffset dy="4"/>
<feGaussianBlur stdDeviation="2"/>
<feComposite in2="hardAlpha" operator="out"/>
<feColorMatrix type="matrix" values="0 0 0 0 0 0 0 0 0 0 0 0 0 0 0 0 0 0 0.25 0"/>
<feBlend mode="normal" in2="BackgroundImageFix" result="effect1_dropShadow_103_5"/>
<feBlend mode="normal" in="SourceGraphic" in2="effect1_dropShadow_103_5" result="shape"/>
</filter>
</defs>
</svg>
